<svg id="Bar_Graph" data-name="Bar Graph" xmlns="http://www.w3.org/2000/svg" width="348.5" height="229.125" viewBox="0 0 348.5 229.125">
  <g id="OBJECTS">
    <rect id="Rectangle_301" data-name="Rectangle 301" width="348.5" height="2.958" transform="translate(0 226.167)" fill="#4b4b50"/>
    <rect id="Rectangle_302" data-name="Rectangle 302" width="10.169" height="2.958" transform="translate(0 192.971)" fill="#4b4b50"/>
    <rect id="Rectangle_303" data-name="Rectangle 303" width="10.169" height="2.958" transform="translate(0 159.609)" fill="#4b4b50"/>
    <rect id="Rectangle_304" data-name="Rectangle 304" width="10.169" height="2.958" transform="translate(0 126.235)" fill="#4b4b50"/>
    <rect id="Rectangle_305" data-name="Rectangle 305" width="10.169" height="2.958" transform="translate(0 92.861)" fill="#4b4b50"/>
    <rect id="Rectangle_306" data-name="Rectangle 306" width="10.169" height="2.958" transform="translate(0 59.5)" fill="#4b4b50"/>
    <rect id="Rectangle_307" data-name="Rectangle 307" width="10.169" height="2.958" transform="translate(0 26.126)" fill="#4b4b50"/>
    <rect id="Rectangle_308" data-name="Rectangle 308" width="338.331" height="2.958" transform="translate(10.169 192.971)" fill="#dfe0e1"/>
    <rect id="Rectangle_309" data-name="Rectangle 309" width="338.331" height="2.958" transform="translate(10.169 159.609)" fill="#dfe0e1"/>
    <rect id="Rectangle_310" data-name="Rectangle 310" width="338.331" height="2.958" transform="translate(10.169 126.235)" fill="#dfe0e1"/>
    <rect id="Rectangle_311" data-name="Rectangle 311" width="338.331" height="2.958" transform="translate(10.169 92.861)" fill="#dfe0e1"/>
    <rect id="Rectangle_312" data-name="Rectangle 312" width="338.331" height="2.958" transform="translate(10.169 59.5)" fill="#dfe0e1"/>
    <rect id="Rectangle_313" data-name="Rectangle 313" width="338.331" height="2.958" transform="translate(10.169 26.126)" fill="#dfe0e1"/>
    <rect id="Rectangle_314" data-name="Rectangle 314" width="3.03" height="227.64" fill="#4b4b50"/>
    <rect id="Rectangle_315" data-name="Rectangle 315" width="31.821" height="130.336" transform="translate(31.067 95.832)" fill="#c25b3c"/>
    <rect id="Rectangle_316" data-name="Rectangle 316" width="31.821" height="163.71" transform="translate(96.725 62.457)" fill="#4b4b50"/>
    <rect id="Rectangle_317" data-name="Rectangle 317" width="31.821" height="96.974" transform="translate(162.384 129.193)" fill="#f5c540"/>
    <rect id="Rectangle_318" data-name="Rectangle 318" width="31.821" height="63.6" transform="translate(228.042 162.567)" fill="#e7dcc6"/>
    <rect id="Rectangle_319" data-name="Rectangle 319" width="32.081" height="30.239" transform="translate(293.505 195.954)"/>
  </g>
</svg>
