<svg xmlns="http://www.w3.org/2000/svg" width="349" height="195" viewBox="0 0 349 195">
  <g id="Upload_Document" data-name="Upload Document" transform="translate(-10354 1999)">
    <g id="Group_639" data-name="Group 639" transform="translate(0 -2)">
      <text id="Drop_documents_here_or" data-name="Drop documents here or" transform="translate(10443 -1890.5)" fill="#4b4b50" font-size="16" font-family="ProximaNova-Regular, Proxima Nova"><tspan x="0" y="0">Drop documents here or</tspan></text>
      <g id="Component_34_1" data-name="Component 34 – 1" transform="translate(10402 -1868)">
        <g id="Rectangle_192" data-name="Rectangle 192" fill="none" stroke="#c25b3c" stroke-width="1">
          <rect width="253" height="42" rx="21" stroke="none"/>
          <rect x="0.5" y="0.5" width="252" height="41" rx="20.5" fill="none"/>
        </g>
        <g id="Rectangle_193" data-name="Rectangle 193" fill="none" stroke="#c25b3c" stroke-width="1">
          <rect width="253" height="42" rx="21" stroke="none"/>
          <rect x="0.5" y="0.5" width="252" height="41" rx="20.5" fill="none"/>
        </g>
        <text id="Browse" transform="translate(99 27)" fill="#c25b3c" font-size="16" font-family="Archivo" font-weight="500"><tspan x="0" y="0">Browse</tspan></text>
      </g>
      <g id="_9026081_upload_simple_icon" data-name="9026081_upload_simple_icon" transform="translate(10503 -1973.344)">
        <rect id="Rectangle_194" data-name="Rectangle 194" width="51" height="50" transform="translate(0 0.344)" fill="none"/>
        <path id="Path_79" data-name="Path 79" d="M86,48.2,94.2,40l8.2,8.2" transform="translate(-69.218 -32.095)" fill="none" stroke="#000" stroke-linecap="round" stroke-linejoin="round" stroke-width="2.5"/>
        <line id="Line_119" data-name="Line 119" y1="22" transform="translate(25 8.344)" fill="none" stroke="#000" stroke-linecap="round" stroke-linejoin="round" stroke-width="2.5"/>
        <path id="Path_80" data-name="Path 80" d="M74.344,152v10.928a1.561,1.561,0,0,1-1.561,1.561H41.561A1.561,1.561,0,0,1,40,162.928V152" transform="translate(-32.194 -122.239)" fill="none" stroke="#000" stroke-linecap="round" stroke-linejoin="round" stroke-width="2.5"/>
      </g>
    </g>
    <g id="Rectangle_195" data-name="Rectangle 195" transform="translate(10354 -1999)" fill="none" stroke="#c25b3c" stroke-width="1" stroke-dasharray="2">
      <rect width="349" height="195" rx="15" stroke="none"/>
      <rect x="0.5" y="0.5" width="348" height="194" rx="14.5" fill="none"/>
    </g>
  </g>
</svg>
