<svg xmlns="http://www.w3.org/2000/svg" width="232.584" height="232.25" viewBox="0 0 232.584 232.25">
  <g id="Circle_Graph" data-name="Circle Graph" transform="translate(0.036)">
    <g id="Layer_1" data-name="Layer 1" transform="translate(-0.036)">
      <path id="Path_146" data-name="Path 146" d="M64.239,73.436a86.609,86.609,0,0,1-3.073,22.9L89.535,105.7A116.121,116.121,0,0,0,79.245,16.59L53.77,32.347A86,86,0,0,1,64.239,73.436Z" transform="translate(138.475 42.685)" fill="#f5c540"/>
      <path id="Path_147" data-name="Path 147" d="M33.75,29.87a86.287,86.287,0,0,1,66.957,37.552l25.511-15.578A116.049,116.049,0,0,0,33.75,0Z" transform="translate(86.964)" fill="#e7dcc6"/>
      <path id="Path_148" data-name="Path 148" d="M79.447,194.226A86.358,86.358,0,0,1,111.961,29.87V0A116.192,116.192,0,0,0,67.978,221.845Z" transform="translate(0.036)" fill="#c25b3c"/>
      <path id="Path_149" data-name="Path 149" d="M142.01,41.22A86.394,86.394,0,0,1,32.678,91.491l-11.4,27.547A116.371,116.371,0,0,0,170.344,50.617Z" transform="translate(54.88 106.057)" fill="#4b4b50"/>
    </g>
  </g>
</svg>
