<svg xmlns="http://www.w3.org/2000/svg" width="56" height="56" viewBox="0 0 56 56">
  <g id="Contact_Us_Button_Header" data-name="Contact Us_Button_Header" transform="translate(-1741 -24)">
    <circle id="Ellipse_3" data-name="Ellipse 3" cx="28" cy="28" r="28" transform="translate(1741 24)" fill="#4b4b50"/>
    <path id="Path_86" data-name="Path 86" d="M47.146,44.921a11.379,11.379,0,0,0,5.309,5.295,1.089,1.089,0,0,0,1.075-.082l3.4-2.273a1.075,1.075,0,0,1,1.034-.1l6.37,2.736a1.075,1.075,0,0,1,.653,1.13,6.534,6.534,0,0,1-6.479,5.7A18.512,18.512,0,0,1,40,38.823a6.533,6.533,0,0,1,5.7-6.479A1.075,1.075,0,0,1,46.833,33l2.736,6.384a1.089,1.089,0,0,1-.082,1.021L47.214,43.86A1.089,1.089,0,0,0,47.146,44.921Z" transform="translate(1717.5 7.165)" fill="none" stroke="#fff" stroke-linecap="round" stroke-linejoin="round" stroke-width="1.75"/>
  </g>
</svg>
