<svg xmlns="http://www.w3.org/2000/svg" viewBox="0 0 200.4 143.12"><defs><style>.cls-1{fill:#020202;}</style></defs><g id="Layer_2" data-name="Layer 2"><g id="Layer_2-2" data-name="Layer 2"><path class="cls-1" d="M13.78,118.37,6,108.66,4,111v7.36H0v-23H4v11l9-11h5L8.7,106.21l10.05,12.16Z"/><path class="cls-1" d="M22.13,106.87C22.13,100,27,95,33.91,95s11.77,5,11.77,11.92-4.87,11.91-11.77,11.91S22.13,113.74,22.13,106.87Zm19.41,0c0-4.77-3-8.32-7.63-8.32s-7.63,3.55-7.63,8.32,3,8.32,7.63,8.32S41.54,111.6,41.54,106.87Z"/><path class="cls-1" d="M53,118.37v-23h4v19.48H67.23v3.56Z"/><path class="cls-1" d="M74.34,118.37v-23h4v19.48H88.53v3.56Z"/><path class="cls-1" d="M95.64,118.37v-23h15.78v3.56H99.68v6h11.5v3.55H99.68v6.39h11.74v3.56Z"/><path class="cls-1" d="M132.8,118.37l-7.74-9.71-2,2.35v7.36h-4v-23h4v11l9-11h5l-9.36,10.88,10.05,12.16Z"/><path class="cls-1" d="M149.41,118.37V98.89h-7V95.33h18v3.56h-7v19.48Z"/><path class="cls-1" d="M167.29,118.37v-23h4v23Z"/><path class="cls-1" d="M186.32,118.37l-9-23h4.59l7,18.65,7-18.65h4.59l-9,23Z"/><path class="cls-1" d="M47.18,142.91l-1-2.55H40.49l-1,2.55H37.85l4.61-11.42h1.76l4.59,11.42Zm-3.85-10-2.41,6.16h4.84Z"/><path class="cls-1" d="M69.75,142.91l-2.9-4.54H64.56v4.54H63.14V131.49h4.59a3.34,3.34,0,0,1,3.59,3.44,3.16,3.16,0,0,1-3,3.32l3.08,4.66Zm.1-8a2.12,2.12,0,0,0-2.29-2.17h-3v4.36h3A2.14,2.14,0,0,0,69.85,134.93Z"/><path class="cls-1" d="M85.94,137.21a5.72,5.72,0,0,1,5.87-5.91,5.09,5.09,0,0,1,4.34,2.26l-1.19.67a3.83,3.83,0,0,0-3.15-1.66,4.65,4.65,0,0,0,0,9.28A3.88,3.88,0,0,0,95,140.19l1.2.65a5.14,5.14,0,0,1-4.35,2.28A5.72,5.72,0,0,1,85.94,137.21Z"/><path class="cls-1" d="M118.91,142.91v-5.24h-6.67v5.24h-1.42V131.49h1.42v4.91h6.67v-4.91h1.42v11.42Z"/><path class="cls-1" d="M135.84,142.91V131.49h1.43v11.42Z"/><path class="cls-1" d="M156.2,142.91l-4.61-11.42h1.63l3.85,9.86,3.85-9.86h1.63L158,142.91Z"/><g id="_12-Lock" data-name=" 12-Lock"><path class="cls-1" d="M123.38,43.83v-4.7a9.59,9.59,0,0,0-9.58-9.58H113a9.59,9.59,0,0,0-9.58,9.58v4.7a4.28,4.28,0,0,0-4.29,4.28V61.39a8.15,8.15,0,0,0,8.14,8.13h12.28a8.15,8.15,0,0,0,8.14-8.13V48.11A4.28,4.28,0,0,0,123.38,43.83Zm-17.13-4.7A6.73,6.73,0,0,1,113,32.4h.82a6.73,6.73,0,0,1,6.73,6.73v4.7H106.25Zm18.56,22.26a5.28,5.28,0,0,1-5.28,5.28H107.25A5.28,5.28,0,0,1,102,61.39h0V48.11a1.43,1.43,0,0,1,1.43-1.43h20a1.43,1.43,0,0,1,1.43,1.43Z"/><path class="cls-1" d="M114.82,56.28V61A1.43,1.43,0,1,1,112,61V56.28a2.86,2.86,0,1,1,3.9-1.05A3,3,0,0,1,114.82,56.28Z"/></g><path class="cls-1" d="M135.5,21.86h0a7.25,7.25,0,0,0-5.89-3h-1.77V14.1a7.3,7.3,0,0,0-7.31-7.29H99.2a4.7,4.7,0,0,1-3.27-1.34L92.58,2.13A7.21,7.21,0,0,0,87.43,0H70.77a7.3,7.3,0,0,0-7.3,7.31V49.84a7.39,7.39,0,0,0,7.38,7.6H97.41V54.76H70.83a4.72,4.72,0,0,1-4.49-6.11L73.8,24.8a4.59,4.59,0,0,1,4.41-3.24H129.6a4.57,4.57,0,0,1,3.72,1.88,4.48,4.48,0,0,1,.7,4.12h0l-4.74,15.17a4.26,4.26,0,0,1,.91,2.64v3.48l6.41-20.5A7.25,7.25,0,0,0,135.5,21.86Zm-10.33-3H78.23a7.32,7.32,0,0,0-7,5.11L66.12,40.35v-33h0a4.63,4.63,0,0,1,4.61-4.63H87.43A4.72,4.72,0,0,1,90.7,4l3.35,3.34A7.27,7.27,0,0,0,99.2,9.49h21.34a4.63,4.63,0,0,1,4.63,4.61Z"/></g></g></svg>