<svg xmlns="http://www.w3.org/2000/svg" width="69.856" height="65.49" viewBox="0 0 69.856 65.49">
  <g id="Manage_Icon" transform="translate(0 -2)">
    <path id="Path_9" data-name="Path 9" d="M34.47,58.758a1.084,1.084,0,0,1-.634-.2c-7.807-5.581-17.949-6.345-27.745-6.345A1.091,1.091,0,0,1,5,51.117V3.091A1.091,1.091,0,0,1,6.091,2c9.9,0,20.172.777,28.379,6.312C42.677,2.777,52.947,2,62.849,2a1.091,1.091,0,0,1,1.091,1.091V39.111H61.758V4.183c-9.453.061-19.135.973-26.653,6.342a1.091,1.091,0,0,1-1.268,0c-7.518-5.366-17.2-6.277-26.653-6.342V50.026c9.563.061,19.382.982,27.287,6.309A30.37,30.37,0,0,1,39.5,53.606l.86,2.006A28.017,28.017,0,0,0,35.1,58.546,1.084,1.084,0,0,1,34.47,58.758Z" transform="translate(0.457 0)" fill="#c25b3c"/>
    <path id="Path_10" data-name="Path 10" d="M28.038,42.369c-4.385-1.876-9.652-2.859-17.082-3.186l.1-2.183c7.7.339,13.207,1.377,17.846,3.362Z" transform="translate(1.002 3.202)" fill="#c25b3c"/>
    <path id="Path_11" data-name="Path 11" d="M28.038,37.369c-4.385-1.876-9.652-2.859-17.082-3.186l.1-2.183c7.7.339,13.207,1.377,17.846,3.362Z" transform="translate(1.002 2.745)" fill="#c25b3c"/>
    <path id="Path_12" data-name="Path 12" d="M28.038,32.369c-4.385-1.876-9.652-2.859-17.082-3.186l.1-2.183c7.7.339,13.207,1.377,17.846,3.362Z" transform="translate(1.002 2.287)" fill="#c25b3c"/>
    <path id="Path_13" data-name="Path 13" d="M28.038,27.369c-4.385-1.876-9.652-2.859-17.082-3.186l.1-2.183c7.7.339,13.207,1.377,17.846,3.362Z" transform="translate(1.002 1.83)" fill="#c25b3c"/>
    <path id="Path_14" data-name="Path 14" d="M28.038,22.369c-4.385-1.876-9.652-2.859-17.082-3.186l.1-2.183c7.7.339,13.207,1.377,17.846,3.362Z" transform="translate(1.002 1.372)" fill="#c25b3c"/>
    <path id="Path_15" data-name="Path 15" d="M28.038,17.369c-4.385-1.876-9.652-2.859-17.082-3.186l.1-2.183c7.7.339,13.207,1.377,17.846,3.362Z" transform="translate(1.002 0.915)" fill="#c25b3c"/>
    <path id="Path_16" data-name="Path 16" d="M37.466,37.369l-.86-2.006C41.244,33.378,46.747,32.34,54.452,32l.1,2.183C47.118,34.51,41.851,35.493,37.466,37.369Z" transform="translate(3.349 2.745)" fill="#c25b3c"/>
    <path id="Path_17" data-name="Path 17" d="M37.466,32.369l-.86-2.006C41.244,28.378,46.747,27.34,54.452,27l.1,2.183C47.118,29.51,41.851,30.493,37.466,32.369Z" transform="translate(3.349 2.287)" fill="#c25b3c"/>
    <path id="Path_18" data-name="Path 18" d="M37.466,27.369l-.86-2.006C41.244,23.378,46.747,22.34,54.452,22l.1,2.183C47.118,24.51,41.851,25.493,37.466,27.369Z" transform="translate(3.349 1.83)" fill="#c25b3c"/>
    <path id="Path_19" data-name="Path 19" d="M37.466,22.369l-.86-2.006C41.244,18.378,46.747,17.34,54.452,17l.1,2.183C47.118,19.51,41.851,20.493,37.466,22.369Z" transform="translate(3.349 1.372)" fill="#c25b3c"/>
    <path id="Path_20" data-name="Path 20" d="M37.466,17.369l-.86-2.006C41.244,13.378,46.747,12.34,54.452,12l.1,2.183C47.118,14.51,41.851,15.493,37.466,17.369Z" transform="translate(3.349 0.915)" fill="#c25b3c"/>
    <rect id="Rectangle_7" data-name="Rectangle 7" width="2.293" height="52.748" transform="translate(33.637 9.39)" fill="#c25b3c"/>
    <path id="Path_21" data-name="Path 21" d="M41.477,62.758H5.457A5.464,5.464,0,0,1,0,57.3V11.457A5.464,5.464,0,0,1,5.457,6H6.549V8.183H5.457a3.274,3.274,0,0,0-3.274,3.274V57.3a3.274,3.274,0,0,0,3.274,3.274H41.477Z" transform="translate(0 0.366)" fill="#c25b3c"/>
    <path id="Path_22" data-name="Path 22" d="M64.549,42.019H62.366V11.457a3.274,3.274,0,0,0-3.274-3.274H58V6h1.091a5.464,5.464,0,0,1,5.457,5.457Z" transform="translate(5.307 0.366)" fill="#c25b3c"/>
    <path id="Path_23" data-name="Path 23" d="M54.372,64.379H50.006a1.092,1.092,0,0,1-1.091-1.091V60.6a10.68,10.68,0,0,1-1.767-.735l-1.9,1.9a1.091,1.091,0,0,1-1.543,0l-3.087-3.087a1.091,1.091,0,0,1,0-1.543l1.9-1.9a10.681,10.681,0,0,1-.735-1.767H39.091A1.091,1.091,0,0,1,38,52.372V48.006a1.091,1.091,0,0,1,1.091-1.091h2.692a10.681,10.681,0,0,1,.735-1.767l-1.9-1.9a1.091,1.091,0,0,1,0-1.543L43.7,38.613a1.091,1.091,0,0,1,1.543,0l1.9,1.9a10.762,10.762,0,0,1,1.767-.735V37.091A1.091,1.091,0,0,1,50.006,36h4.366a1.091,1.091,0,0,1,1.092,1.091v2.692a10.76,10.76,0,0,1,1.767.735l1.9-1.9a1.091,1.091,0,0,1,1.543,0L63.766,41.7a1.092,1.092,0,0,1,0,1.543l-1.9,1.9a10.682,10.682,0,0,1,.735,1.767h2.692a1.091,1.091,0,0,1,1.091,1.091v4.366a1.091,1.091,0,0,1-1.091,1.091H62.6a10.681,10.681,0,0,1-.735,1.767l1.9,1.9a1.092,1.092,0,0,1,0,1.543l-3.087,3.087a1.091,1.091,0,0,1-1.543,0l-1.9-1.9a10.681,10.681,0,0,1-1.767.735v2.692A1.092,1.092,0,0,1,54.372,64.379ZM51.1,62.2h2.183V59.762A1.091,1.091,0,0,1,54.13,58.7a8.693,8.693,0,0,0,2.7-1.121,1.092,1.092,0,0,1,1.353.151l1.723,1.723,1.543-1.543-1.723-1.723a1.091,1.091,0,0,1-.151-1.353,8.693,8.693,0,0,0,1.126-2.7,1.091,1.091,0,0,1,1.059-.849H64.2V49.1H61.762a1.091,1.091,0,0,1-1.064-.849,8.693,8.693,0,0,0-1.121-2.7,1.092,1.092,0,0,1,.151-1.353l1.723-1.723-1.543-1.543-1.723,1.723a1.091,1.091,0,0,1-1.352.152,8.719,8.719,0,0,0-2.7-1.122,1.092,1.092,0,0,1-.849-1.064V38.183H51.1v2.434a1.091,1.091,0,0,1-.849,1.064,8.719,8.719,0,0,0-2.7,1.122,1.091,1.091,0,0,1-1.352-.152l-1.723-1.723-1.543,1.543,1.723,1.723a1.091,1.091,0,0,1,.151,1.353,8.693,8.693,0,0,0-1.121,2.7,1.091,1.091,0,0,1-1.064.849H40.183v2.183h2.434a1.091,1.091,0,0,1,1.064.849,8.693,8.693,0,0,0,1.121,2.7,1.092,1.092,0,0,1-.151,1.353l-1.723,1.723,1.543,1.543,1.723-1.723a1.091,1.091,0,0,1,1.353-.151,8.693,8.693,0,0,0,2.7,1.126,1.092,1.092,0,0,1,.849,1.059Z" transform="translate(3.477 3.111)" fill="#c25b3c"/>
    <path id="Path_24" data-name="Path 24" d="M51.549,56.1A6.549,6.549,0,1,1,58.1,49.549,6.549,6.549,0,0,1,51.549,56.1Zm0-10.915a4.366,4.366,0,1,0,4.366,4.366A4.366,4.366,0,0,0,51.549,45.183Z" transform="translate(4.117 3.751)" fill="#c25b3c"/>
    <path id="Path_25" data-name="Path 25" d="M34.2,54.64H9.091A1.091,1.091,0,0,1,8,53.549V47h2.183v5.457H34.2Z" transform="translate(0.732 4.117)" fill="#c25b3c"/>
  </g>
</svg>
