<svg xmlns="http://www.w3.org/2000/svg" width="73.333" height="73.247" viewBox="0 0 73.333 73.247">
  <g id="Present_Icon" transform="translate(0.5)">
    <path id="Path_26" data-name="Path 26" d="M120,32h2.289v2.289H120Z" transform="translate(-103.261 -27.422)" fill="#c25b3c"/>
    <path id="Path_27" data-name="Path 27" d="M376,168h2.289v2.289H376Z" transform="translate(-322.637 -143.966)" fill="#c25b3c"/>
    <path id="Path_28" data-name="Path 28" d="M424,32h2.289v2.289H424Z" transform="translate(-363.77 -27.422)" fill="#c25b3c"/>
    <path id="Path_29" data-name="Path 29" d="M0,189.7H2.289v2.289H0Z" transform="translate(-0.428 -162.561)" fill="#c25b3c"/>
    <path id="Path_30" data-name="Path 30" d="M232,464h2.289v2.289H232Z" transform="translate(-199.238 -397.619)" fill="#c25b3c"/>
    <path id="Path_31" data-name="Path 31" d="M156.006,408a4.006,4.006,0,1,0,4.006,4.006A4.018,4.018,0,0,0,156.006,408Zm0,5.722a1.717,1.717,0,1,1,1.717-1.717A1.722,1.722,0,0,1,156.006,413.722Z" transform="translate(-130.683 -349.631)" fill="#c25b3c"/>
    <path id="Path_32" data-name="Path 32" d="M28.006,24.011A4.006,4.006,0,1,0,24,20.006,4.017,4.017,0,0,0,28.006,24.011Zm0-5.722a1.717,1.717,0,1,1-1.717,1.717A1.722,1.722,0,0,1,28.006,18.289Z" transform="translate(-20.995 -13.711)" fill="#c25b3c"/>
    <path id="Path_33" data-name="Path 33" d="M216.6,7.868l3.4,1.86,1.86,3.4a1.135,1.135,0,0,0,2,0l1.86-3.4,3.4-1.86a1.135,1.135,0,0,0,0-2l-3.4-1.86L223.868.6a1.135,1.135,0,0,0-2,0l-1.86,3.4-3.4,1.86a1.135,1.135,0,0,0,0,2Zm4.793-2.017a1.173,1.173,0,0,0,.458-.458l1.016-1.86,1.016,1.86a1.173,1.173,0,0,0,.458.458l1.86,1.016-1.86,1.016a1.173,1.173,0,0,0-.458.458l-1.016,1.86-1.016-1.86a1.173,1.173,0,0,0-.458-.458l-1.86-1.016Z" transform="translate(-185.527)" fill="#c25b3c"/>
    <path id="Path_34" data-name="Path 34" d="M309.133,421.866l-3.4-1.86-1.86-3.4a1.135,1.135,0,0,0-2,0l-1.86,3.4-3.4,1.86a1.135,1.135,0,0,0,0,2l3.4,1.86,1.86,3.4a1.135,1.135,0,0,0,2,0l1.86-3.4,3.4-1.86a1.135,1.135,0,0,0,0-2Zm-4.793,2.017a1.173,1.173,0,0,0-.458.458l-1.016,1.86-1.016-1.86a1.173,1.173,0,0,0-.458-.458l-1.86-1.016,1.86-1.016a1.173,1.173,0,0,0,.458-.458l1.016-1.86,1.016,1.86a1.173,1.173,0,0,0,.458.458l1.86,1.016Z" transform="translate(-254.082 -356.486)" fill="#c25b3c"/>
    <path id="Path_35" data-name="Path 35" d="M72.69,101.5l-7.883-15.78V73.4a1.133,1.133,0,0,0-.472-.93,1.153,1.153,0,0,0-1.03-.157l-1.931.644V71.109a1.14,1.14,0,0,0-.973-1.13,32.033,32.033,0,0,0-9.5,0,32.432,32.432,0,0,0-13.634,5.494,43.664,43.664,0,0,0-11.116-4.335,60.506,60.506,0,0,0-14.034-1.173,1.149,1.149,0,0,0-1.1,1.144v1.845l-1.931-.644a1.153,1.153,0,0,0-1.03.157,1.133,1.133,0,0,0-.472.93V85.716L-.371,101.5a1.058,1.058,0,0,0-.129.515v30.9H1.789V102.554L15.351,91.367A7.938,7.938,0,0,1,13.921,97.8L7.869,103.47a1.136,1.136,0,0,0-.358.83v3.433a1.148,1.148,0,0,0,1.144,1.144,3.767,3.767,0,0,1,2.6,1.388c1.359,1.66,1.66,4.664.858,8.684l2.246.443a22.417,22.417,0,0,0,.486-4.921c.672-.043,1.33-.057,1.989-.057.043,2.5-.343,8.956-5.093,10.544a1.138,1.138,0,0,0-.787,1.087v6.867h2.289v-6.08c2.79-1.245,4.664-3.92,5.465-7.783a21.029,21.029,0,0,0,.415-4.521,34.68,34.68,0,0,1,13.491,4.092.285.285,0,0,1,.157.258v1.445a1.148,1.148,0,0,0,1.144,1.144h6.867a1.148,1.148,0,0,0,1.144-1.144v-1.617a.338.338,0,0,1,.1-.229,20.146,20.146,0,0,1,11.2-4.22c-.057,2.961.4,10.143,5.851,12.575v6.08h2.289v-6.867a1.151,1.151,0,0,0-.787-1.087c-4.764-1.588-5.122-8.212-5.064-10.758.8.029,1.459.086,1.96.143a21.9,21.9,0,0,0,.472,5.05l2.246-.443c-.8-3.991-.515-6.981.83-8.655a3.816,3.816,0,0,1,2.632-1.431,1.148,1.148,0,0,0,1.144-1.144v-3.433a1.136,1.136,0,0,0-.358-.83L58.413,97.8a7.884,7.884,0,0,1-1.431-6.438l13.562,11.187v30.358h2.289v-30.9A1.258,1.258,0,0,0,72.69,101.5ZM68.241,97.69l-3.433-2.833V90.823Zm-5.722-22.7v18l-1.144-.944V75.372Zm-51.5.386V91.982l-1.144.944V74.986ZM7.583,94.815,4.121,97.676l3.462-6.867Zm7.969,4.592a1.162,1.162,0,0,0,.129-.143,10.2,10.2,0,0,0,1.259-10.358,1.124,1.124,0,0,0-.787-.6,1.1,1.1,0,0,0-.959.243l-1.888,1.545V72.225A56.322,56.322,0,0,1,25.623,73.37,41.44,41.44,0,0,1,36.2,77.5v35.164a43.221,43.221,0,0,0-10.029-3.748,59.075,59.075,0,0,0-12.861-1.2v-6.195ZM9.8,104.8l1.216-1.13v3.548A7.3,7.3,0,0,0,9.8,106.76Zm30.8,11.888a2.57,2.57,0,0,0-.973,2.017v.472H35.051v-.315a2.561,2.561,0,0,0-1.345-2.26,36.046,36.046,0,0,0-19.127-4.392,8.52,8.52,0,0,0-.773-2.2,55.876,55.876,0,0,1,11.817,1.144A41.468,41.468,0,0,1,36.768,115.6a1.119,1.119,0,0,0,1.144,0,.257.257,0,0,0,.1-.072,30.15,30.15,0,0,1,13.233-5.508,29.408,29.408,0,0,1,7.353-.186,8.205,8.205,0,0,0-.83,2.246A23.069,23.069,0,0,0,40.6,116.689Zm21.917-9.928a5.926,5.926,0,0,0-1.144.415v-3.448l1.144,1.073ZM56.167,88.305a1.164,1.164,0,0,0-.787.6,10.2,10.2,0,0,0,1.259,10.358,1.289,1.289,0,0,0,.129.143l2.318,2.175v5.994a31.334,31.334,0,0,0-8.183.172,32.212,32.212,0,0,0-12.418,4.692V77.418a29.483,29.483,0,0,1,20.6-5.308v18.04l-1.96-1.617a1.165,1.165,0,0,0-.959-.229Z" transform="translate(0 -59.664)" fill="#c25b3c"/>
    <path id="Path_36" data-name="Path 36" d="M134.422,140.72l1.13-1.989a28.525,28.525,0,0,0-16.753-3.577l.329,2.26A26.765,26.765,0,0,1,134.422,140.72Z" transform="translate(-102.233 -115.698)" fill="#c25b3c"/>
    <path id="Path_37" data-name="Path 37" d="M134.422,180.72l1.13-1.989a28.525,28.525,0,0,0-16.753-3.577l.329,2.26A26.765,26.765,0,0,1,134.422,180.72Z" transform="translate(-102.233 -149.976)" fill="#c25b3c"/>
    <path id="Path_38" data-name="Path 38" d="M284,298.819l1.13,1.989a26.536,26.536,0,0,1,15.293-3.29l.329-2.26A28.2,28.2,0,0,0,284,298.819Z" transform="translate(-243.799 -252.882)" fill="#c25b3c"/>
    <path id="Path_39" data-name="Path 39" d="M284,131.676l1.13,1.989a26.536,26.536,0,0,1,15.293-3.29l.329-2.26A28.452,28.452,0,0,0,284,131.676Z" transform="translate(-243.799 -109.659)" fill="#c25b3c"/>
  </g>
</svg>
