<svg xmlns="http://www.w3.org/2000/svg" width="61.254" height="66.49" viewBox="0 0 61.254 66.49">
  <g id="Sell_Icon" transform="translate(-24.56 -4.5)">
    <path id="Path_40" data-name="Path 40" d="M110.018,399.523H70.75a4.641,4.641,0,0,1-4.5-4.756,4.874,4.874,0,0,1,1.3-3.345,4.363,4.363,0,0,1,3.2-1.422h39.268a.783.783,0,0,1,.432,1.435,4.333,4.333,0,0,0-1.817,3.543,4.19,4.19,0,0,0,1.807,3.1.783.783,0,0,1-.428,1.435Zm-39.265-7.958a2.81,2.81,0,0,0-2.06.913,3.311,3.311,0,0,0-.875,2.275,3.08,3.08,0,0,0,2.935,3.2h37.354a5.332,5.332,0,0,1,.03-6.385Z" transform="translate(-35.816 -334.774)" fill="#c25b3c" stroke="#c25b3c" stroke-width="1"/>
    <path id="Path_41" data-name="Path 41" d="M25.843,60.769a.783.783,0,0,1-.783-.783V34.829a.783.783,0,1,1,1.565,0V54.305a10.535,10.535,0,0,1,1.3-1.727,9.541,9.541,0,0,1,7.007-3.092H75.711V32.226A13.967,13.967,0,0,1,64.92,6.565h-33.4a4.9,4.9,0,0,0-4.9,4.9V28.724a.783.783,0,1,1-1.565,0V11.462A6.469,6.469,0,0,1,31.522,5H71.045a.783.783,0,1,1-.01,1.565,12.4,12.4,0,1,0,5.154,23.808.783.783,0,0,1,1.088.72V50.269a.783.783,0,0,1-.783.783H34.937a7.956,7.956,0,0,0-5.86,2.6,9.234,9.234,0,0,0-2.451,6.339.783.783,0,0,1-.783.783Z" transform="translate(0 0)" fill="#c25b3c" stroke="#c25b3c" stroke-width="1"/>
    <path id="Path_42" data-name="Path 42" d="M25.843,202.49a.783.783,0,0,1-.783-.783v-1.174a.783.783,0,1,1,1.565,0v1.174A.783.783,0,0,1,25.843,202.49Z" transform="translate(0 -169.343)" fill="#c25b3c" stroke="#c25b3c" stroke-width="1"/>
    <path id="Path_43" data-name="Path 43" d="M74.618,367H34.944c-5.445,0-9.876-4.712-9.876-10.5a10.794,10.794,0,0,1,2.87-7.409A9.536,9.536,0,0,1,34.944,346H76.5a.783.783,0,0,1,.783.783v3.522a3.016,3.016,0,0,1-3.012,3H34.944a2.807,2.807,0,0,0-2.057.913,3.315,3.315,0,0,0-.877,2.276,3.076,3.076,0,0,0,2.935,3.191H74.618a2.668,2.668,0,0,1,2.665,2.665v1.982A2.668,2.668,0,0,1,74.618,367ZM34.944,347.565a7.984,7.984,0,0,0-5.86,2.6,9.238,9.238,0,0,0-2.45,6.34c0,4.927,3.728,8.938,8.31,8.938H74.618a1.1,1.1,0,0,0,1.1-1.1v-1.987a1.1,1.1,0,0,0-1.1-1.1H34.944a4.642,4.642,0,0,1-4.5-4.757,4.878,4.878,0,0,1,1.3-3.345,4.36,4.36,0,0,1,3.2-1.415H74.271a1.448,1.448,0,0,0,1.447-1.447v-2.728Z" transform="translate(-0.007 -296.514)" fill="#c25b3c" stroke="#c25b3c" stroke-width="1"/>
    <path id="Path_44" data-name="Path 44" d="M286.889,32.918a13.959,13.959,0,1,1,13.959-13.959A13.959,13.959,0,0,1,286.889,32.918Zm0-26.352a12.393,12.393,0,1,0,12.394,12.393A12.393,12.393,0,0,0,286.889,6.565Z" transform="translate(-215.534 0)" fill="#c25b3c" stroke="#c25b3c" stroke-width="1"/>
    <path id="Path_45" data-name="Path 45" d="M302.563,429.056a.783.783,0,0,1,0-1.566h5.757a.783.783,0,0,1,0,1.566Z" transform="translate(-240.62 -367.373)" fill="#c25b3c" stroke="#c25b3c" stroke-width="1"/>
    <path id="Path_46" data-name="Path 46" d="M102.583,422.056a.783.783,0,1,1,0-1.565h15.922a.783.783,0,1,1,0,1.565Z" transform="translate(-66.729 -361.286)" fill="#c25b3c" stroke="#c25b3c" stroke-width="1"/>
    <path id="Path_47" data-name="Path 47" d="M339.553,53.229a.783.783,0,0,1-.693-.417,6.109,6.109,0,0,0-10.017-1.148h1.174a.783.783,0,1,1,0,1.565h-2.657a.783.783,0,0,1-.42-.13.761.761,0,0,1-.119-.1.773.773,0,0,1-.177-.261.555.555,0,0,1-.023-.065l-.875-2.7a.783.783,0,0,1,1.49-.481l.384,1.188a7.676,7.676,0,0,1,12.624,1.4.783.783,0,0,1-.691,1.149Z" transform="translate(-261.426 -37.382)" fill="#c25b3c" stroke="#c25b3c" stroke-width="1"/>
    <path id="Path_48" data-name="Path 48" d="M339.308,130.72a7.658,7.658,0,0,1-6.784-4.089.783.783,0,0,1,1.384-.732,6.108,6.108,0,0,0,10.015,1.149h-1.174a.783.783,0,1,1,0-1.565h2.656a.783.783,0,0,1,.417.13.769.769,0,0,1,.121.1.792.792,0,0,1,.176.261.493.493,0,0,1,.023.061l.873,2.706a.783.783,0,1,1-1.49.48l-.381-1.19A7.652,7.652,0,0,1,339.308,130.72Z" transform="translate(-267.274 -104.765)" fill="#c25b3c" stroke="#c25b3c" stroke-width="1"/>
  </g>
</svg>
