<svg xmlns="http://www.w3.org/2000/svg" width="20.5" height="20.5" viewBox="0 0 20.5 20.5">
  <g id="World_Icon" transform="translate(0.66)">
    <rect id="Rectangle_1" data-name="Rectangle 1" width="20" height="20" transform="translate(-0.16 0.5)" fill="none"/>
    <circle id="Ellipse_1" data-name="Ellipse 1" cx="9.5" cy="9.5" r="9.5" transform="translate(-0.16 0.5)" fill="none" stroke="#e7ddc6" stroke-linecap="round" stroke-width="1"/>
    <ellipse id="Ellipse_2" data-name="Ellipse 2" cx="4.5" cy="9.5" rx="4.5" ry="9.5" transform="translate(4.84 0.5)" fill="none" stroke="#e7ddc6" stroke-linecap="round" stroke-width="1"/>
    <path id="Path_1" data-name="Path 1" d="M6.365,37.772A14.667,14.667,0,0,1,13.8,36a14.776,14.776,0,0,1,7.365,1.727" transform="translate(-3.944 -21.52)" fill="none" stroke="#e7ddc6" stroke-width="1"/>
    <path id="Path_2" data-name="Path 2" d="M21.353,9.563a14.671,14.671,0,0,1-7.439,1.771A14.777,14.777,0,0,1,6.549,9.608" transform="translate(-4.054 -5.637)" fill="none" stroke="#e7ddc6" stroke-width="1"/>
    <line id="Line_1" data-name="Line 1" x2="19" transform="translate(-0.16 9.5)" fill="none" stroke="#e7ddc6" stroke-width="1"/>
    <line id="Line_2" data-name="Line 2" y2="19" transform="translate(9.84 0.5)" fill="none" stroke="#e7ddc6" stroke-width="1"/>
  </g>
</svg>
